<?xml version="1.0" encoding="UTF-8"?><svg version="1.1" width="178px" height="676px" viewBox="0 0 178.0 676.0" xmlns="http://www.w3.org/2000/svg" xmlns:xlink="http://www.w3.org/1999/xlink"><defs><clipPath id="i0"><path d="M1440,0 L1440,1652 L0,1652 L0,0 L1440,0 Z"></path></clipPath><clipPath id="i1"><path d="M591.32998,72.9629732 C608.387833,102.661825 617.780302,135.666911 626.490522,168.962576 L627.280675,171.990171 L628.068235,175.018864 L628.854368,178.04815 C628.985336,178.553053 629.116293,179.05796 629.247263,179.562859 L630.033441,182.592093 L631.215862,187.13454 C634.113521,198.235086 637.076448,209.306996 640.363277,220.23858 C648.901354,248.659121 659.717737,276.345941 670.735653,303.954863 L672.68166,308.82635 C688.584235,348.605742 704.651661,388.303466 714.667516,429.882604 C732.050529,502.001108 727.844062,585.528286 678.022187,640.501636 C638.790406,683.772739 577.131282,701.762186 518.808615,698.659301 C460.488092,695.539273 404.773307,673.649791 352.506409,647.568843 C351.67043,647.151882 350.834189,646.73355 349.997657,646.314061 L347.487158,645.052333 C347.068587,644.841536 346.649936,644.630504 346.231201,644.419262 L343.71776,643.149507 C340.365093,641.453714 337.006622,639.747906 333.640508,638.045703 L331.114461,636.769939 C296.150195,619.137107 260.313846,602.258686 221.553091,601.342714 C190.528527,600.607707 127.45939,602.371294 99.4091385,589.081175 C68.5517188,574.46033 38.1485889,542.827189 19.6491372,514.127645 C-8.19891264,470.929058 -0.257601397,376.337129 6.36100038,280.286773 L6.83100723,273.424227 C7.9201034,257.408977 8.94791262,241.386241 9.74261975,225.5872 C11.3112053,194.367634 24.2927503,164.34165 47.3929575,143.285747 C97.806267,97.3767636 154.712492,128.034896 204.069363,153.254408 C243.221857,173.258159 292.694444,189.912594 328.836197,164.870941 C348.618696,151.168318 358.676286,128.674946 367.989561,105.932064 L368.733206,104.112263 C368.856939,103.808928 368.980582,103.505589 369.104157,103.202267 L369.844953,101.382691 C370.091725,100.776339 370.338394,100.170215 370.585129,99.5644802 L371.325705,97.7486062 C373.302016,92.910255 375.293499,88.1071947 377.387347,83.4223527 C394.243212,45.7248717 423.859906,10.1252666 464.308841,1.80019186 C515.127154,-8.66133057 565.474034,27.9668552 591.32998,72.9629732 Z"></path></clipPath><linearGradient id="i2" x1="134.693243px" y1="-32.9450887px" x2="790.017153px" y2="339.074556px" gradientUnits="userSpaceOnUse"><stop stop-color="#DB83EA" offset="0%"></stop><stop stop-color="#FFFFFF" offset="100%"></stop></linearGradient></defs><g transform="translate(-1262.0 -790.0)"><g clip-path="url(#i0)"><g transform="translate(1986.6467849594246 767.5) scale(-1.0 1.0)"><g clip-path="url(#i1)"><polygon points="546.646785,2.08721929e-14 723.966785,2.08721929e-14 723.966785,699 546.646785,699 546.646785,2.08721929e-14" stroke="none" fill="url(#i2)"></polygon></g></g></g></g></svg>