<?xml version="1.0" encoding="UTF-8"?><svg version="1.1" width="1234px" height="264px" viewBox="0 0 1234.0 264.0" xmlns="http://www.w3.org/2000/svg" xmlns:xlink="http://www.w3.org/1999/xlink"><defs><clipPath id="i0"><path d="M1440,0 L1440,3957 L0,3957 L0,0 L1440,0 Z"></path></clipPath><clipPath id="i1"><path d="M1440,0 L1440,273.187335 L0,273.187335 L0,0 L1440,0 Z"></path></clipPath><clipPath id="i2"><path d="M1038.8458,128.181017 C1069.26701,181.146352 1085.81053,240.097408 1101.31045,299.491816 L1102.69605,304.811756 L1104.07812,310.133182 L1105.45871,315.455209 C1111.6711,339.404357 1117.90065,363.344901 1124.98727,386.914129 C1162.48641,511.736819 1225.00128,628.503274 1255.52462,755.215791 C1286.06302,881.913248 1278.67312,1028.65341 1191.14627,1125.23034 C1122.22406,1201.24882 1013.90159,1232.8526 911.440601,1227.40146 C808.983372,1221.92021 711.103892,1183.46487 619.281646,1137.64598 C610.469782,1133.25089 601.64133,1128.76912 592.785394,1124.28141 L588.355084,1122.03743 C524.819712,1089.87738 459.779428,1058.10347 389.223457,1056.43613 C334.719645,1055.14487 223.920073,1058.24313 174.641519,1034.89511 C120.431346,1009.20928 67.0192663,953.63632 34.5195143,903.217094 C-23.7225411,812.870569 7.14337658,594.565447 17.1157898,396.31056 C19.8714736,341.464169 42.6773925,288.714659 83.2597308,251.723744 C171.825602,171.071053 271.798197,224.931119 358.508123,269.236642 C427.291045,304.37914 514.204259,333.637575 577.697925,289.644514 C624.03633,257.547573 640.001979,197.995439 662.992363,146.556007 C692.60467,80.3292452 744.635143,17.7880219 815.695646,3.16256882 C904.973026,-15.2161859 993.422194,49.1320432 1038.8458,128.181017 Z"></path></clipPath></defs><g transform="translate(0.0 -3693.0)"><g clip-path="url(#i0)"><g transform="translate(0.0 3683.737358737655)"><g clip-path="url(#i1)"><g transform="translate(1420.3536900760591 970.6745400811469) rotate(165.00000000000003)"><g clip-path="url(#i2)"><polygon points="-4.54747351e-13,668.636066 1191.43334,668.636066 1191.43334,1228 -4.54747351e-13,1228 -4.54747351e-13,668.636066" stroke="none" fill="#F9EFF8"></polygon></g></g></g></g></g></g></svg>