<?xml version="1.0" encoding="UTF-8"?><svg version="1.1" width="488px" height="439px" viewBox="0 0 488.0 439.0" xmlns="http://www.w3.org/2000/svg" xmlns:xlink="http://www.w3.org/1999/xlink"><defs><clipPath id="i0"><path d="M1440,0 L1440,3957 L0,3957 L0,0 L1440,0 Z"></path></clipPath><clipPath id="i1"><path d="M422.226487,-0.00153965414 L423.283885,0 C456.962017,0.287943453 492.224856,40.8002075 485.82064,89.9135711 C480.338865,132.027237 439.361902,167.039639 446.041598,208.973825 C448.509569,224.450421 457.247658,237.79919 465.844512,251.207773 L466.964512,252.957238 C474.605176,264.916689 481.91219,276.999218 484.345848,290.753837 C490.53441,325.784326 463.064318,358.072536 433.07734,377.198922 C396.307709,400.668988 353.701518,413.090634 311.509939,424.140445 C311.132861,424.239212 310.755654,424.337901 310.37832,424.436495 L308.112806,425.026779 C306.223628,425.517507 304.331351,426.005015 302.436175,426.487211 L300.160584,427.063161 L297.882285,427.633207 C269.386946,434.718517 240.274788,440.231369 211.214328,437.103312 C176.709756,433.388505 144.550937,417.658316 115.546227,398.591757 C78.4482457,374.182554 44.7033301,343.255048 23.0948414,304.451317 C1.48635273,265.646195 -6.95335445,218.299799 6.43386324,175.952393 C17.974808,139.501373 82.9241009,66.589593 187.026345,73.2832018 C226.847126,75.8432185 266.603907,66.6688979 300.956826,46.3668525 C339.027335,23.8665319 388.176873,-0.295016868 423.283885,0 Z"></path></clipPath><linearGradient id="i2" x1="243.289897px" y1="0px" x2="243.289897px" y2="438px" gradientUnits="userSpaceOnUse"><stop stop-color="#9B83EA" offset="0%"></stop><stop stop-color="#FFFFFF" offset="100%"></stop></linearGradient></defs><g transform="translate(-753.0 -238.0)"><g clip-path="url(#i0)"><g transform="translate(753.7101033841104 238.40522404407636)"><g clip-path="url(#i1)"><polygon points="-1.77635684e-15,-0.00267482555 486.579793,-0.00267482555 486.579793,438 -1.77635684e-15,438 -1.77635684e-15,-0.00267482555" stroke="none" fill="url(#i2)"></polygon></g></g></g></g></svg>