<?xml version="1.0" encoding="UTF-8"?><svg version="1.1" width="514px" height="487px" viewBox="0 0 514.0 487.0" xmlns="http://www.w3.org/2000/svg" xmlns:xlink="http://www.w3.org/1999/xlink"><defs><clipPath id="i0"><path d="M1440,0 L1440,1147 L0,1147 L0,0 L1440,0 Z"></path></clipPath></defs><g transform="translate(-772.0 -316.0)"><g clip-path="url(#i0)"><g transform="translate(699.3908509784821 625.4107148385999) rotate(-60.999999999999986)"><path d="M182.416792,419.5893 C238.325012,402.785156 316.855226,448.835071 358.390643,450.908397 C396.407673,452.799323 445.790937,425.128209 474.788257,394.4701 C503.799562,363.805297 510.071407,314.544154 481.441867,286.16687 C468.976487,273.820627 451.549568,266.350631 438.873029,254.18846 C398.299715,215.253782 421.155241,148.832063 403.143789,97.2231586 C382.381674,37.7342784 309.838031,7.27864914 240.818368,1.26449906 C196.923842,-2.56253523 149.743066,1.55064811 111.727433,23.9840638 C73.7215901,46.4158061 48.3643174,90.7906619 61.828158,128.530541 C73.9579205,162.537096 114.433347,192.681476 98.2076566,226.537426 C86.8707896,250.217514 54.3634736,257.79628 32.1498147,274.170364 C-2.64668976,299.831742 -8.89336362,348.980769 11.9330778,382.988997 C32.7679096,416.995552 58.680349,441.430337 102.453213,438.511952 C122.881109,437.149815 162.751026,425.499701 182.416792,419.5893 Z" stroke="#FF5F7F" stroke-width="4" fill="none" stroke-miterlimit="10"></path></g></g></g></svg>