<?xml version="1.0" encoding="UTF-8"?><svg version="1.1" width="507px" height="484px" viewBox="0 0 507.0 484.0" xmlns="http://www.w3.org/2000/svg" xmlns:xlink="http://www.w3.org/1999/xlink"><defs><clipPath id="i0"><path d="M1440,0 L1440,3957 L0,3957 L0,0 L1440,0 Z"></path></clipPath></defs><g transform="translate(-766.0 -1531.0)"><g clip-path="url(#i0)"><g transform="translate(695.5853663396879 1846.0751042137026) rotate(-62.00000000000003)"><path d="M182.467114,413.076828 C238.390757,396.533502 316.942634,441.868673 358.489509,443.909819 C396.517027,445.771396 445.913914,418.529767 474.919233,388.347504 C503.938541,358.158652 510.212116,309.662094 481.574679,281.725256 C469.10586,269.570639 451.674133,262.216585 438.994098,250.243184 C398.409591,211.912815 421.271422,146.522031 403.255001,95.7141517 C382.487158,37.1486022 309.923503,7.16567676 240.8848,1.24487269 C196.978166,-2.52276195 149.784374,1.5265804 111.758255,23.6118056 C73.7419271,45.6953834 48.3776593,89.3814942 61.845214,126.535611 C73.9783227,160.014347 114.464914,189.690854 98.2347484,223.021324 C86.894754,246.333872 54.3784705,253.795008 32.1586837,269.914949 C-2.64741988,295.178034 -8.89581696,343.564216 11.9363697,377.0446 C32.7769491,410.523337 58.6965367,434.578869 102.481476,431.70578 C122.915008,430.364785 162.795923,418.895492 182.467114,413.076828 Z" stroke="#FF5F7F" stroke-width="4" fill="none" stroke-miterlimit="10"></path></g></g></g></svg>