<?xml version="1.0" encoding="UTF-8"?><svg version="1.1" width="474px" height="427px" viewBox="0 0 474.0 427.0" xmlns="http://www.w3.org/2000/svg" xmlns:xlink="http://www.w3.org/1999/xlink"><defs><clipPath id="i0"><path d="M1440,0 L1440,1147 L0,1147 L0,0 L1440,0 Z"></path></clipPath><clipPath id="i1"><path d="M410.65613,0.00367492079 L411.684552,0.00525107779 C444.439796,0.282654408 478.73632,39.6847528 472.5076,87.4522531 C467.176043,128.41187 427.32198,162.46482 433.818631,203.249875 C436.035151,217.149628 443.451705,229.284697 451.158321,241.330433 L452.260709,243.050826 C460.351583,255.665235 468.504196,268.269156 471.073222,282.788853 C477.092197,316.859394 450.374874,348.262805 421.209635,366.865066 C389.063994,387.383638 352.331765,399.219946 315.428593,409.209248 L312.660604,409.955089 C309.43107,410.821447 306.201073,411.674971 302.97357,412.520241 C271.066774,420.877524 238.212747,428.656996 205.42638,425.127884 C171.867343,421.514875 140.589779,406.215743 112.37989,387.671669 C76.2985127,363.931357 43.4783158,333.851363 22.4619688,296.110979 C1.44562191,258.369241 -6.76281029,212.320288 6.2575548,171.133336 C17.4822408,135.68119 80.6517152,64.7674266 181.901224,71.2776091 C220.630789,73.7674732 259.298107,64.8445583 292.709646,45.0988539 C329.736902,23.2151141 377.539585,-0.284330935 411.684552,0.00525107779 Z"></path></clipPath><linearGradient id="i2" x1="88.0469007px" y1="-20.0781227px" x2="516.42206px" y2="206.646296px" gradientUnits="userSpaceOnUse"><stop stop-color="#F8D2FF" offset="0%"></stop><stop stop-color="#FFFFFF" offset="100%"></stop></linearGradient></defs><g transform="translate(-772.0 -305.0)"><g clip-path="url(#i0)"><g transform="translate(772.3770250383818 731.634745953437) scale(1.0 -1.0)"><g clip-path="url(#i1)"><polygon points="1.13686838e-13,0.00260152678 473.24595,0.00260152678 473.24595,426 1.13686838e-13,426 1.13686838e-13,0.00260152678" stroke="none" fill="url(#i2)"></polygon></g></g></g></g></svg>