<?xml version="1.0" encoding="UTF-8"?><svg version="1.1" width="149px" height="45px" viewBox="0 0 149.0 45.0" xmlns="http://www.w3.org/2000/svg" xmlns:xlink="http://www.w3.org/1999/xlink"><defs><clipPath id="i0"><path d="M1440,0 L1440,3957 L0,3957 L0,0 L1440,0 Z"></path></clipPath><clipPath id="i1"><path d="M142.314519,0 C143.433838,0 144.507296,0.444605162 145.298671,1.23597664 C146.090046,2.02734811 146.535297,3.10063808 146.535297,4.21966041 L146.535297,37.8262022 C146.535297,38.9446296 146.090586,40.0171849 145.299116,40.8076197 C144.507646,41.5980544 143.434343,42.0415292 142.31562,42.0403634 L4.22518069,42.0403634 C1.89453796,42.0427934 0.00303737945,40.1562269 0,37.8262022 L0,4.21966041 C0.00303577265,1.88874619 1.89364705,0.000605033585 4.22518069,0 L142.314519,0 Z"></path></clipPath><clipPath id="i2"><path d="M143.294048,0 C146.165735,0.00363274233 148.493301,2.32910681 148.498759,5.20003001 L148.498759,38.8054715 C148.500958,41.6706594 146.162196,44 143.295148,44 L5.20470942,44 C2.33391343,43.9993984 0.00546233958,41.675502 0,38.8054715 L0,5.20003001 C0.00424687981,2.32860467 2.33252125,0.00242359124 5.20470942,0 L143.294048,0 Z"></path></clipPath><clipPath id="i3"><path d="M16.6776473,6.7738532 L16.9723666,6.79436845 C17.8781556,6.82077571 20.4557469,7.15196679 22.1187446,9.57593338 C21.9844721,9.65625547 19.0480871,11.3815299 19.0800043,14.9278051 C19.1174245,19.1771737 22.8000123,20.5833604 22.8440361,20.5987647 C22.8220242,20.6977919 22.2673248,22.6277226 20.8860792,24.5851609 L20.6186293,24.981646 C19.5425338,26.5590321 18.3765554,27.9983842 16.6047682,28.0258071 C14.7403618,28.0687189 14.1130232,26.9299057 11.9745689,26.9299057 C9.8163039,26.9299057 9.14824329,27.9960989 7.3597779,28.0687189 C5.87022572,28.123408 4.66711182,26.8675507 3.62599903,25.4755468 L3.34598224,25.0934162 C3.20788863,24.9015455 3.07259708,24.7091283 2.93979206,24.5191428 C0.550402308,21.0300833 -1.30960169,14.6868389 1.1843445,10.3703518 C2.3927968,8.25336968 4.59618616,6.89009478 6.9514575,6.85378479 C8.78174546,6.8163745 10.4799621,8.08942459 11.6047693,8.08942459 C12.7075646,8.08942459 14.8074981,6.56660582 16.9723666,6.79436845 Z M16.9954791,0 C17.1781777,1.6603566 16.5200225,3.29650654 15.5581032,4.49913726 C14.5543614,5.68306284 12.9485947,6.58861187 11.3846505,6.47197979 C11.17994,4.87434044 11.9723677,3.17547326 12.8594465,2.13898822 C13.8620877,0.96276476 15.6032276,0.0616169447 16.9954791,0 Z"></path></clipPath><clipPath id="i4"><path d="M73.9654254,0 C76.8373627,0.00302841069 79.1652831,2.32885581 79.1701348,5.20003001 L79.1701348,38.8021706 C79.1646758,41.6727364 76.8367558,43.9975792 73.9654254,44 L28.9709381,44 L0,0 Z"></path></clipPath><linearGradient id="i5" x1="39.583838px" y1="44.1168236px" x2="39.583838px" y2="-114.568429px" gradientUnits="userSpaceOnUse"><stop stop-color="rgba(26, 26, 26, 0.1)" offset="0%"></stop><stop stop-color="rgba(32, 32, 32, 0.151)" offset="12.3%"></stop><stop stop-color="rgba(52, 52, 52, 0.227)" offset="30.8%"></stop><stop stop-color="rgba(87, 87, 87, 0.318)" offset="53.2%"></stop><stop stop-color="rgba(133, 133, 133, 0.421)" offset="78.3%"></stop><stop stop-color="rgba(179, 179, 179, 0.51)" offset="100%"></stop></linearGradient><clipPath id="i6"><path d="M20.1034515,4.08322289 C21.349324,4.08322289 22.3893854,4.57505814 23.2214346,5.55982895 C24.0523831,6.54680037 24.4695083,7.84295681 24.4695083,9.45049889 C24.4695083,11.2461927 23.9819451,12.665583 23.0057181,13.7075696 C22.1318464,14.6351247 21.0455601,15.098352 19.7501608,15.098352 C18.3513057,15.098352 17.3453628,14.599915 16.734533,13.6008402 L16.734533,19.1408637 L14.3880665,19.1408637 L14.3880665,7.77143715 C14.3880665,6.643627 14.3583504,5.48720898 14.3011195,4.3010828 L16.3647334,4.3010828 L16.4957041,5.97464303 L16.5397279,5.97464303 C17.3222503,4.71369627 18.5097913,4.08322289 20.1034515,4.08322289 Z M32.2496078,4.08322289 C33.4943797,4.08322289 34.5344411,4.57505814 35.3686915,5.55982895 C36.1985394,6.54680037 36.6167651,7.84295681 36.6167651,9.45049889 C36.6167651,11.2461927 36.129202,12.665583 35.152975,13.7075696 C34.2780027,14.6351247 33.192817,15.098352 31.8963171,15.098352 C30.497462,15.098352 29.4915191,14.599915 28.8806893,13.6008402 L28.8806893,19.1408637 L26.5342228,19.1408637 L26.5342228,7.77143715 C26.5342228,6.643627 26.5045067,5.48720898 26.4472758,4.3010828 L28.5108897,4.3010828 L28.6418604,5.97464303 L28.6858842,5.97464303 C29.467306,4.71369627 30.654847,4.08322289 32.2496078,4.08322289 Z M64.5377364,4.08652379 C66.0873729,4.08652379 67.3321448,4.6014654 68.2742534,5.62914802 C69.1745393,6.62602216 69.6224811,7.91337618 69.6224811,9.49341069 C69.6224811,11.116357 69.1580304,12.4488234 68.2313302,13.49081 C67.2617068,14.563605 65.9718105,15.098352 64.3638426,15.098352 C62.8120049,15.098352 61.578239,14.5845107 60.6581423,13.5579284 C59.7380456,12.5291455 59.2779973,11.2329891 59.2779973,9.6694591 C59.2779973,8.03330916 59.753454,6.69314061 60.7010655,5.65115407 C61.6508782,4.60806722 62.9297685,4.08652379 64.5377364,4.08652379 Z M46.3273067,0 C47.6601262,0 48.7706256,0.232163845 49.6522015,0.695391233 L49.0633836,2.60771712 C48.2335357,2.15879367 47.2969301,1.93433194 46.2491646,1.93433194 C45.4215178,1.93433194 44.7721673,2.13788792 44.3077166,2.54279927 C43.9170057,2.90479882 43.7188988,3.34602016 43.7188988,3.86976419 C43.7188988,4.44742304 43.9445206,4.92715497 44.3935629,5.30345845 C44.7831732,5.65005376 45.494157,6.02745755 46.5221119,6.4323689 C47.7833927,6.94070869 48.7100929,7.53267148 49.3033131,8.21265848 C49.9009357,8.89264548 50.1980961,9.74097877 50.1980961,10.7521568 C50.1980961,11.9987997 49.7622609,13.0121783 48.8960933,13.7944935 C47.9429789,14.6483283 46.6123606,15.076346 44.9064398,15.076346 C43.3303891,15.076346 42.066907,14.7726625 41.1137926,14.1641952 L41.6563855,12.2089575 C42.6854409,12.8185251 43.815751,13.1222086 45.0462152,13.1222086 C45.9310929,13.1222086 46.6189642,12.9219535 47.1098291,12.5247443 C47.6017947,12.1264348 47.850529,11.5938883 47.850529,10.9293056 C47.850529,10.3340419 47.6447179,9.83560479 47.2407998,9.42959314 C46.8346806,9.02468179 46.1633182,8.647278 45.2201091,8.30068269 C42.6557249,7.34451974 41.3724322,5.94603516 41.3724322,4.10632924 C41.3724322,2.90479882 41.8258769,1.92112831 42.7305653,1.1520168 C43.6352536,0.384005602 44.8349012,0 46.3273067,0 Z M55.3895984,1.66805872 L55.3895984,4.29668159 L57.9759945,4.29668159 L57.9759945,6.06156693 L55.3895984,6.06156693 L55.3895984,11.1878767 C55.3895984,12.4917352 55.8452444,13.1420141 56.7587375,13.1420141 C57.1780638,13.1420141 57.5258515,13.1068044 57.8010001,13.0330841 L57.8659351,14.814474 C57.4036856,14.9872215 56.7950571,15.0741454 56.0411501,15.0741454 C55.1144499,15.0741454 54.390259,14.7913676 53.8674768,14.2258121 C53.3468958,13.6602566 53.0849544,12.712896 53.0849544,11.3793293 L53.0849544,6.05716572 L51.5441227,6.05716572 L51.5441227,4.29668159 L53.0849544,4.29668159 L53.0849544,2.36344995 L55.3895984,1.66805872 Z M83.3589959,4.06671835 C84.8811175,4.06671835 86.0334395,4.63117357 86.8159619,5.76008402 C87.4355963,6.65463002 87.7470645,7.76373503 87.7470645,9.08079722 C87.7530146,9.43740489 87.7242638,9.793746 87.6612181,10.1447898 L80.6218184,10.1447898 C80.6482326,11.1878767 80.9894168,11.9866963 81.6431697,12.5368476 C82.2363899,13.0275826 83.003504,13.2740504 83.9456125,13.2740504 C84.9878751,13.2740504 85.9387884,13.109005 86.79395,12.7756133 L87.1615484,14.4029608 C86.162209,14.8386806 84.9823721,15.0554402 83.6209373,15.0554402 C81.9832533,15.0554402 80.6977594,14.5735077 79.7622544,13.6118433 C78.8289506,12.6490785 78.3611981,11.3551227 78.3611981,9.73437695 C78.3611981,8.14333942 78.7959328,6.81747481 79.6665027,5.76008402 C80.5777946,4.63117357 81.8093594,4.06671835 83.3589959,4.06671835 Z M7.62821759,0.216759609 L12.3651745,14.8595864 L9.86572536,14.8595864 L8.49658632,10.5585036 L3.73761751,10.5585036 L2.43341352,14.8595864 L0,14.8595864 L4.71604565,0.216759609 L7.62821759,0.216759609 Z M76.6640821,4.08322289 C76.8808991,4.08322289 77.0768048,4.09862712 77.2506987,4.12613469 L77.2528999,6.36415014 C77.0088503,6.32010179 76.7612941,6.2983727 76.5133007,6.29923229 C75.6878551,6.29923229 75.0495105,6.60951762 74.6004681,7.23448948 C74.2108578,7.78464078 74.0149521,8.48003201 74.0149521,9.31956288 L74.0149521,14.8595864 L71.6684855,14.8595864 L71.6684855,7.6261972 C71.6705781,6.51782204 71.6478268,5.40953915 71.6002487,4.3021831 L73.6440519,4.3021831 L73.7298982,6.32233864 L73.7948333,6.32233864 C74.0435675,5.62804771 74.4331778,5.0679937 74.9680666,4.64877841 C75.4576696,4.28246317 76.0525526,4.08409271 76.6640821,4.08322289 Z M64.4529907,5.79859461 C63.5130834,5.79859461 62.7921942,6.2178099 62.3013293,7.05624047 C61.8809023,7.7505314 61.6717895,8.59446348 61.6717895,9.59133762 C61.6717895,10.5596039 61.8809023,11.3914326 62.3013293,12.083523 C62.8087031,12.9219535 63.5163851,13.3411688 64.43318,13.3411688 C65.3301642,13.3411688 66.0334438,12.9131511 66.5419183,12.0626172 C66.9733512,11.3518218 67.1901682,10.5166921 67.1901682,9.54732551 C67.1901682,8.58015954 66.9810553,7.7505314 66.561729,7.05624047 C66.0697634,6.2178099 65.3653832,5.79859461 64.4529907,5.79859461 Z M19.3407398,5.95153667 C18.7618273,5.95153667 18.2357434,6.14518993 17.7657897,6.52699492 C17.2947354,6.91210083 16.9865691,7.41493911 16.8423913,8.03771037 C16.7780274,8.27061321 16.7414535,8.51031152 16.7334324,8.75180675 L16.7334324,10.5133912 C16.7334324,11.2803021 16.9689596,11.9283803 17.4400138,12.4587261 C17.9110681,12.9868714 18.5229984,13.2520443 19.2758048,13.2520443 C20.1595818,13.2520443 20.8474531,12.9098502 21.3394187,12.2309635 C21.8324848,11.5498762 22.0790179,10.6520293 22.0790179,9.53632249 C22.0790179,8.50863988 21.8478931,7.66140689 21.3834424,6.99352322 C20.8760686,6.29923229 20.1948008,5.95153667 19.3407398,5.95153667 Z M31.4879967,5.95153667 C30.9090842,5.95153667 30.3830003,6.14518993 29.9108454,6.52699492 C29.4397911,6.91210083 29.1327254,7.41493911 28.9885476,8.03771037 C28.9170089,8.32819025 28.8784881,8.56475531 28.8784881,8.75180675 L28.8784881,10.5133912 C28.8784881,11.2803021 29.1151159,11.9283803 29.583969,12.4587261 C30.0550232,12.9857711 30.6669535,13.2520443 31.4219611,13.2520443 C32.3068387,13.2520443 32.99471,12.9098502 33.485575,12.2309635 C33.9786411,11.5498762 34.2251742,10.6520293 34.2251742,9.53632249 C34.2251742,8.50863988 33.9929489,7.66140689 33.5284982,6.99352322 C33.0211243,6.29923229 32.3420577,5.95153667 31.4879967,5.95153667 Z M6.10719657,2.1719973 L6.0631728,2.1719973 C5.91789439,2.79476856 5.68566903,3.71462152 5.36759734,4.93045588 L4.15034029,8.75400735 L8.08386354,8.75400735 L6.8456952,4.93045588 C6.7147245,4.53984846 6.46819143,3.6199955 6.10719657,2.1719973 Z M83.185102,5.68966466 C82.4179879,5.68966466 81.7928505,6.0076521 81.3173938,6.6458276 C80.9266829,7.15306709 80.6944576,7.76263472 80.622919,8.47012929 L85.5095567,8.47232989 C85.5260656,7.77583836 85.3719824,7.17617345 85.0539108,6.66893396 C84.6477915,6.01535422 84.0226541,5.68966466 83.185102,5.68966466 Z"></path></clipPath><clipPath id="i7"><path d="M9.86462477,2.27432544 C11.3592315,2.27432544 12.3640739,3.35262197 12.3640739,4.93375678 C12.3640739,6.55560279 11.3284149,7.68781415 9.77877843,7.68781415 C8.26215978,7.68781415 7.27932927,6.55560279 7.27932927,5.01848008 C7.27932927,3.41643952 8.28307107,2.27432544 9.86462477,2.27432544 Z M34.4596007,2.27432544 C35.9553081,2.27432544 36.9590508,3.35262197 36.9590508,4.93375678 C36.9601505,6.55560279 35.9233909,7.68781415 34.374855,7.68781415 C32.8593369,7.68781415 31.8754058,6.55560279 31.8754058,5.01848008 C31.8754058,3.41643952 32.8791476,2.27432544 34.4596007,2.27432544 Z M40.4314242,2.27432544 C41.7873562,2.27432544 42.4719257,2.98952212 42.4719257,4.42101578 L42.4719257,6.33224137 C42.4719257,6.8559854 42.4950381,7.26199705 42.5467661,7.57118208 L41.5067047,7.57008177 L41.4230595,6.97261747 L41.3922429,6.97261747 C41.0400528,7.4534497 40.5260753,7.68781415 39.8745236,7.68781415 C38.9445216,7.68781415 38.2841652,7.03643502 38.2841652,6.16059416 C38.2841652,4.87984196 39.3946646,4.2174598 41.3174025,4.2174598 L41.3174025,4.12173348 C41.3174025,3.43844557 40.955307,3.09625147 40.2399209,3.09625147 C39.7281446,3.09625147 39.2791022,3.22498687 38.883989,3.48135737 L38.6495624,2.72324889 C39.1294214,2.42396659 39.7281446,2.27432544 40.4314242,2.27432544 Z M56.4626777,2.27432544 C57.958385,2.27432544 58.9621277,3.35262197 58.9621277,4.93375678 C58.9632274,6.55560279 57.9275684,7.68781415 56.3768313,7.68781415 C54.8613133,7.68781415 53.8784828,6.55560279 53.8784828,5.01848008 C53.8784828,3.41643952 54.8822246,2.27432544 56.4626777,2.27432544 Z M49.0567801,0 L49.0567801,6.17159719 C49.0567801,6.67333517 49.0688866,7.14316437 49.0997032,7.57008177 L48.072849,7.57008177 L48.0189199,6.73715272 L47.9870026,6.73715272 C47.6557238,7.36652579 47.0988232,7.68781415 46.3207032,7.68781415 C45.0693277,7.68781415 44.1426275,6.58751157 44.1426275,5.03938583 C44.1426275,3.41643952 45.1034461,2.27322514 46.4153543,2.27322514 C47.1098291,2.27322514 47.6017947,2.50758959 47.8791444,2.97851909 L47.9022569,2.97851909 L47.9022569,0 L49.0567801,0 Z M71.656379,1.08819925 L71.656379,2.37995449 L72.925364,2.37995449 L72.925364,3.24589262 L71.656379,3.24589262 L71.656379,5.76558554 C71.656379,6.40706194 71.878699,6.72724999 72.3277414,6.72724999 C72.5313513,6.72724999 72.7019434,6.70524394 72.8395176,6.67333517 L72.8714348,7.54917602 C72.6480142,7.63499962 72.3486527,7.67791143 71.9766519,7.67791143 C71.0675611,7.67791143 70.5238677,7.17617345 70.5238677,5.86241216 L70.5238677,3.24589262 L69.7666589,3.24589262 L69.7666589,2.38105479 L70.5238677,2.38105479 L70.5238677,1.43039336 L71.656379,1.08819925 Z M83.1685931,2.26332241 C84.494809,2.26332241 85.3268581,3.24589262 85.3268581,4.73020081 C85.3343164,4.90536791 85.3210169,5.08080204 85.2872367,5.25284453 L81.8258683,5.25284453 C81.8478802,6.23541474 82.4983313,6.78996724 83.4613511,6.78996724 C83.9731274,6.78996724 84.4441816,6.70414364 84.8602062,6.54459976 L85.039603,7.34562005 C84.5487381,7.55907875 83.9709262,7.6658081 83.2984632,7.6658081 C81.6750869,7.6658081 80.7142683,6.64032609 80.7142683,5.05038886 C80.7142683,3.45935132 81.6981994,2.26332241 83.1685931,2.26332241 Z M1.98657232,0.319035631 C4.67752485,0.319035631 5.91679379,1.64275176 5.91679379,3.80044512 C5.91679379,6.28932957 4.45300366,7.63389932 1.68721073,7.63389932 C1.03455844,7.63389932 0.469953674,7.60199055 0,7.54807572 L0,0.4687289 C0.657284244,0.367220626 1.32149461,0.317188113 1.98657232,0.319035631 Z M75.6779498,0 L75.6779498,3.11715722 L75.7010622,3.11715722 C76.0642583,2.55160169 76.5903423,2.27322514 77.2617046,2.27322514 C78.3600975,2.27322514 79.0314599,3.12705994 79.0314599,4.48373303 L79.0314599,7.57008177 L77.8791379,7.57008177 L77.8791379,4.61246843 C77.8791379,3.68381305 77.5280484,3.21398385 76.832473,3.21398385 C76.2348504,3.21398385 75.6779498,3.6199955 75.6779498,4.44192153 L75.6779498,7.57008177 L74.5256278,7.57008177 L74.5256278,0 L75.6779498,0 Z M14.6775227,2.38105479 L15.2652399,4.84793318 C15.4039148,5.43549476 15.5205778,5.99004726 15.61743,6.51379129 L15.6394419,6.51379129 C15.7241877,6.07697117 15.8628625,5.53122109 16.0664724,4.85893621 L16.8038705,2.38215509 L17.7437778,2.38215509 L18.4492586,4.80612168 C18.6198507,5.39368326 18.7585256,5.97024182 18.8663838,6.5148916 L18.8972004,6.5148916 C18.9720408,5.98124484 19.0898044,5.41458901 19.2493905,4.80612168 L19.8800309,2.38215509 L21.0125422,2.38105479 L19.389166,7.57008177 L18.3314951,7.57008177 L17.6590321,5.31666208 C17.4918285,4.76546049 17.3526091,4.20615953 17.2419069,3.64090125 L17.219895,3.64090125 C17.1351493,4.20645678 16.9744625,4.77311261 16.8038705,5.31666208 L16.0884843,7.57008177 L15.0198075,7.57008177 L13.4921829,2.38105479 L14.6775227,2.38105479 Z M25.1848944,2.27432544 C26.2744825,2.27432544 26.9898687,3.10725449 26.9898687,4.46282728 L26.9887681,7.57008177 L25.8353455,7.57008177 L25.8353455,4.59046238 C25.8353455,3.67281002 25.4831554,3.21288354 24.7886805,3.21288354 C24.1052116,3.21288354 23.6352579,3.80044512 23.6352579,4.48373303 L23.6352579,7.57008177 L22.4818353,7.57008177 L22.4818353,3.86426267 C22.4818353,3.4054365 22.4708294,2.91360124 22.4389122,2.37995449 L23.4536599,2.37995449 L23.507589,3.18097477 L23.5395063,3.18097477 C23.8498738,2.62642227 24.4794136,2.27432544 25.1848944,2.27432544 Z M63.3590002,2.27322514 C64.4485883,2.27322514 65.1650751,3.10615419 65.1650751,4.46172697 L65.1650751,7.57008177 L64.0105519,7.57008177 L64.0105519,4.59046238 C64.0105519,3.67281002 63.6583618,3.21288354 62.9638869,3.21288354 C62.280418,3.21288354 61.8115649,3.80044512 61.8115649,4.48373303 L61.8115649,7.57008177 L60.6570417,7.57008177 L60.6570417,3.86426267 C60.6570417,3.4054365 60.6460358,2.91360124 60.6141185,2.37995449 L61.6288663,2.37995449 L61.6827954,3.18097477 L61.7147126,3.18097477 C62.0239796,2.62642227 62.65462,2.27322514 63.3590002,2.27322514 Z M30.169485,0 L30.169485,7.57008177 L29.0149618,7.57008177 L29.0149618,0 L30.169485,0 Z M41.3482191,4.985471 C40.0671276,4.985471 39.4243807,5.29575633 39.4243807,6.03185876 C39.4243807,6.57650854 39.7556595,6.84278176 40.2157078,6.84278176 C40.8023244,6.84278176 41.3482191,6.39495861 41.3482191,5.78649129 L41.3482191,4.985471 Z M56.4197545,3.11715722 C55.5877054,3.11715722 55.0539172,3.89617145 55.0539172,4.985471 C55.0539172,6.05386481 55.5987113,6.83287904 56.4087485,6.83287904 C57.220987,6.83287904 57.7646872,5.99994999 57.7646872,4.96346495 C57.7668816,3.90717447 57.2330935,3.11715722 56.4197545,3.11715722 Z M34.4177782,3.11715722 C33.5846284,3.11715722 33.0508403,3.89617145 33.0508403,4.985471 C33.0508403,6.05386481 33.596735,6.83287904 34.4056716,6.83287904 C35.2179101,6.83287904 35.7616052,5.99994999 35.7616052,4.96346495 C35.7627041,3.90717447 35.2300166,3.11715722 34.4177782,3.11715722 Z M9.82280219,3.11715722 C8.98965247,3.11715722 8.45586434,3.89617145 8.45586434,4.985471 C8.45586434,6.05386481 9.00065841,6.83287904 9.81179625,6.83287904 C10.6229341,6.83287904 11.1677282,5.99994999 11.1677282,4.96346495 C11.1677282,3.90717447 10.63394,3.11715722 9.82280219,3.11715722 Z M46.687201,3.17107204 C45.8320394,3.17107204 45.3092572,3.92918052 45.3092572,4.99647403 C45.3092572,6.04286179 45.8518501,6.75915877 46.6640885,6.75915877 C47.38938,6.75915877 47.9022569,6.12868539 47.9022569,5.38157993 L47.9022569,4.5167421 C47.9022569,3.7905424 47.4212973,3.17107204 46.687201,3.17107204 Z M2.08122341,1.22683738 C1.71802736,1.22683738 1.40876043,1.24884343 1.15232201,1.30165796 L1.15232201,6.68323789 C1.29099686,6.70524394 1.55734063,6.71514667 1.93154262,6.71514667 C3.69469434,6.71514667 4.69843614,5.71167071 4.69843614,3.8323539 C4.69843614,2.15659306 3.79044602,1.22683738 2.08122341,1.22683738 Z M83.0882497,3.06434269 C82.4256921,3.06434269 81.9018093,3.64090125 81.8269689,4.4309185 L84.2295658,4.4309185 C84.2295658,3.62989822 83.8256478,3.06434269 83.0882497,3.06434269 Z"></path></clipPath></defs><g transform="translate(-151.0 -656.0)"><g clip-path="url(#i0)"><g transform="translate(151.3199999999997 656.75)"><g transform="translate(0.9795287340768652 0.9792692990572398)"><g clip-path="url(#i1)"><polygon points="0,0 146.535297,0 146.535297,42.0403658 0,42.0403658 0,0" stroke="none" fill="#FFFFFF"></polygon></g></g><g clip-path="url(#i2)"><polygon points="0,0 148.49876,0 148.49876,44 0,44 0,0" stroke="none" fill="#A6A6A6"></polygon></g><g transform="translate(0.9795287340768652 0.9792692990572398)"><g clip-path="url(#i1)"><polygon points="0,0 146.535297,0 146.535297,42.0403658 0,42.0403658 0,0" stroke="none" fill="#000000"></polygon></g></g><g transform="translate(14.078694245980392 6.840581159818958)"><g clip-path="url(#i3)"><polygon points="0,0 22.8440361,0 22.8440361,28.0704414 0,28.0704414 0,0" stroke="none" fill="#FFFFFF"></polygon></g></g><g transform="translate(69.32972308506032 0.0)"><g clip-path="url(#i4)"><polygon points="0,0 79.1701348,0 79.1701348,44 0,44 0,0" stroke="none" fill="url(#i5)"></polygon></g></g><g transform="translate(46.69820695155204 19.80434619520366)"><g clip-path="url(#i6)"><polygon points="0,0 87.7478299,0 87.7478299,19.1408637 0,19.1408637 0,0" stroke="none" fill="#FFFFFF"></polygon></g></g><g transform="translate(48.071748367426146 7.2102828277776325)"><g clip-path="url(#i7)"><polygon points="0,0 85.3288695,0 85.3288695,7.68781415 0,7.68781415 0,0" stroke="none" fill="#FFFFFF"></polygon></g></g></g></g></g></svg>