<?xml version="1.0" encoding="UTF-8"?><svg version="1.1" width="150px" height="45px" viewBox="0 0 150.0 45.0" xmlns="http://www.w3.org/2000/svg" xmlns:xlink="http://www.w3.org/1999/xlink"><defs><clipPath id="i0"><path d="M1440,0 L1440,3957 L0,3957 L0,0 L1440,0 Z"></path></clipPath><clipPath id="i1"><path d="M148.656985,0 L148.656985,44 L0,44 L0,0 L148.656985,0 Z"></path></clipPath><clipPath id="i2"><path d="M143.214822,0 C146.244367,0 148.723085,2.47871808 148.723085,5.50826239 L148.723085,38.5578368 C148.723085,41.5873811 146.244367,44.0660991 143.214822,44.0660991 L5.50826239,44.0660991 C2.47871808,44.0660991 0,41.5873811 0,38.5578368 L0,5.50826239 C0,2.47871808 2.47871808,0 5.50826239,0 L143.214822,0 Z"></path></clipPath><clipPath id="i3"><path d="M143.214822,0 C146.244367,0 148.723085,2.47871808 148.723085,5.50826239 L148.723085,38.5578368 C148.723085,41.5873811 146.244367,44.0660991 143.214822,44.0660991 L5.50826239,44.0660991 C2.47871808,44.0660991 0,41.5873811 0,38.5578368 L0,5.50826239 C0,2.47871808 2.47871808,0 5.50826239,0 Z M143.214822,0.881321983 L5.50826239,0.881321983 C2.95683525,0.881321983 0.881321983,2.95683525 0.881321983,5.50826239 L0.881321983,38.5578368 C0.881321983,41.1092639 2.95683525,43.1847772 5.50826239,43.1847772 L143.214822,43.1847772 C145.766249,43.1847772 147.841763,41.1092639 147.841763,38.5578368 L147.841763,5.50826239 C147.841763,2.95683525 145.766249,0.881321983 143.214822,0.881321983 Z"></path></clipPath><clipPath id="i4"><path d="M39.9051577,5.18217326 C41.0222334,5.18217326 41.9101652,5.68012018 42.3717576,6.22984477 L42.4422634,6.22984477 L42.4422634,5.4663996 L44.3954932,5.4663996 L44.3954932,13.8797196 C44.3954932,17.34001 42.3541312,18.7600401 39.9404106,18.7600401 C37.6677016,18.7600401 36.3016525,17.2331497 35.7871808,15.9915874 L37.5795694,15.2457687 C37.8990486,16.0092138 38.6801202,16.9136705 39.9404106,16.9136705 C41.4838257,16.9136705 42.4422634,15.9563345 42.4422634,14.1628443 L42.4422634,13.4897346 L42.3717576,13.4897346 C41.9101652,14.0570856 41.0222334,14.5539309 39.9051577,14.5539309 C37.5619429,14.5539309 35.4137206,12.5125689 35.4137206,9.88622934 C35.4137206,7.2422634 37.5619429,5.18217326 39.9051577,5.18217326 Z M86.2362544,5.45868803 L88.6819229,11.4296445 L88.7524286,11.4296445 L91.1088633,5.45868803 L93.3947922,5.45868803 L87.7422133,18.4460691 L85.5983976,18.4460691 L87.6904357,13.8037056 L84.0219329,5.45868803 L86.2362544,5.45868803 Z M53.2869304,5.18217326 C55.7182774,5.18217326 56.9069604,7.11777666 57.2980471,8.16434652 L57.510666,8.69644467 L51.24667,11.2875313 C51.7247872,12.2283425 52.4706059,12.708663 53.5171758,12.708663 C54.5648473,12.708663 55.2919379,12.1930896 55.8251377,11.412018 L57.4225338,12.477316 C56.9069604,13.2407611 55.6642964,14.5539309 53.5171758,14.5539309 C50.8555834,14.5539309 48.8671007,12.4949424 48.8671007,9.8686029 C48.8671007,7.08252379 50.8732098,5.18217326 53.2869304,5.18217326 Z M7.38437656,0 C9.60310466,0 11.1817727,0.870305458 12.3715573,2.00610916 L10.9691537,3.40851277 C10.1164747,2.60981472 8.96414622,1.98848272 7.38437656,1.98848272 C4.45508262,1.98848272 2.16584877,4.34932399 2.16584877,7.27751627 C2.16584877,10.2057086 4.45508262,12.5665498 7.38437656,12.5665498 C9.28252379,12.5665498 10.3654482,11.8031047 11.0572859,11.1101652 C11.6257386,10.5428142 11.9980971,9.72648973 12.141312,8.60831247 L7.38437656,8.60831247 L7.38437656,6.6209314 L14.0747121,6.6209314 C14.1463195,6.9756635 14.1815724,7.402003 14.1815724,7.86249374 C14.1815724,9.3541312 13.7728593,11.1993991 12.4596895,12.5125689 C11.1817727,13.843365 9.54912369,14.5539309 7.38437656,14.5539309 C3.37215824,14.5539309 0,11.2875313 0,7.27751627 C0,3.2663996 3.37215824,0 7.38437656,0 Z M19.5895844,5.18217326 C22.180671,5.18217326 24.2925388,7.15302954 24.2925388,9.8686029 C24.2925388,12.5665498 22.180671,14.5539309 19.5895844,14.5539309 C16.9973961,14.5539309 14.8855283,12.5665498 14.8855283,9.8686029 C14.8855283,7.15302954 16.9973961,5.18217326 19.5895844,5.18217326 Z M29.8492739,5.18217326 C32.4403605,5.18217326 34.5522283,7.15302954 34.5522283,9.8686029 C34.5522283,12.5665498 32.4403605,14.5539309 29.8492739,14.5539309 C27.2581873,14.5539309 25.1463195,12.5665498 25.1463195,9.8686029 C25.1463195,7.15302954 27.2581873,5.18217326 29.8492739,5.18217326 Z M79.6990486,5.15793691 C82.0543816,5.15793691 83.8809214,6.52178267 83.8809214,8.96745118 L83.8809214,14.2476715 L81.8957436,14.2476715 L81.8957436,13.1834752 L81.8241362,13.1834752 C81.3471207,13.9105658 80.5836755,14.5307962 79.2022033,14.5307962 C77.3954932,14.5307962 75.782674,13.3432148 75.782674,11.5001502 C75.782674,9.48082123 77.7843766,8.40010015 79.7519279,8.40010015 C80.7257887,8.40010015 81.5233851,8.71847772 81.8957436,8.93109664 L81.8957436,8.79008513 C81.8781172,7.65538307 80.7973961,7.01752629 79.7343015,7.01752629 C78.9719579,7.01752629 78.245969,7.26649975 77.855984,8.02774161 L76.0316475,7.26649975 C76.6695043,5.81342013 78.2107161,5.15793691 79.6990486,5.15793691 Z M74.6490736,0.496845268 L74.6490736,14.2697046 L72.5933901,14.2697046 L72.5933901,0.496845268 L74.6490736,0.496845268 Z M66.9419129,0.49794692 C69.2201302,0.49794692 71.4597897,2.14712068 71.4597897,4.77456184 C71.4597897,7.40310466 69.2201302,9.05227842 66.9419129,9.05227842 L64.0710065,9.05227842 L64.0710065,14.2697046 L62.0164246,14.2697046 L62.0164246,0.49794692 Z M47.8734101,0.496845268 L47.8734101,14.2697046 L45.8155233,14.2697046 L45.8155233,0.496845268 L47.8734101,0.496845268 Z M40.0825238,7.02854281 C38.6624937,7.02854281 37.4738107,8.23485228 37.4738107,9.88622934 C37.4738107,11.5188783 38.6624937,12.708663 40.0825238,12.708663 C41.4838257,12.708663 42.5843766,11.5188783 42.5843766,9.88622934 C42.5843766,8.23485228 41.4838257,7.02854281 40.0825238,7.02854281 Z M19.5895844,7.02854281 C18.1695543,7.02854281 16.9445168,8.18197296 16.9445168,9.8686029 C16.9445168,11.5365048 18.1695543,12.708663 19.5895844,12.708663 C21.0085128,12.708663 22.2335503,11.5365048 22.2335503,9.8686029 C22.2335503,8.18197296 21.0085128,7.02854281 19.5895844,7.02854281 Z M29.8492739,7.02854281 C28.4292439,7.02854281 27.2042063,8.18197296 27.2042063,9.8686029 C27.2042063,11.5365048 28.4292439,12.708663 29.8492739,12.708663 C31.269304,12.708663 32.4932399,11.5365048 32.4932399,9.8686029 C32.4932399,8.18197296 31.269304,7.02854281 29.8492739,7.02854281 Z M80.0174261,10.0657987 C79.0083125,10.0657987 77.8383575,10.4734101 77.8383575,11.5365048 C77.8383575,12.3682524 78.7780671,12.705358 79.4500751,12.705358 C80.6376565,12.705358 81.736004,11.802003 81.8957436,10.5262894 C81.3471207,10.2596895 80.9207812,10.0657987 80.0174261,10.0657987 Z M53.3574362,6.99328993 C52.3108663,6.99328993 50.8555834,7.91537306 50.9084627,9.72648973 L55.0980471,7.98698047 C54.8667001,7.402003 54.1748623,6.99328993 53.3574362,6.99328993 Z M66.9947922,2.41482223 L64.0710065,2.41482223 L64.0710065,7.1354031 L66.9947922,7.1354031 C68.5315974,7.1354031 69.4041062,5.84206309 69.4041062,4.77456184 C69.4041062,3.68723085 68.5315974,2.41482223 66.9947922,2.41482223 Z"></path></clipPath><clipPath id="i5"><path d="M11.7281923,0 L17.9084627,6.72669004 L4.70625939,14.3446169 L4.66770155,14.36665 C4.19619429,14.6453681 3.6464697,14.8029044 3.06039059,14.8029044 C1.59519279,14.8029044 0.361342013,13.8081122 0.00110165248,12.4563846 L11.7281923,0 Z"></path></clipPath><clipPath id="i6"><path d="M6.4215323,0 L12.1214822,3.30385578 L12.1324987,3.31156735 C13.1173761,3.85027541 13.7827742,4.89243866 13.7827742,6.09213821 C13.7827742,7.30065098 13.1085628,8.34832248 12.1137707,8.88592889 L6.444667,12.1567351 L0,5.71427141 L6.4215323,0 Z"></path></clipPath><clipPath id="i7"><path d="M0.10686029,0 L12.239359,11.4968453 L0.107961943,23.6271407 C0.0363545318,23.3682524 0,23.0950426 0,22.8130195 L0,0.815222834 C0,0.5331998 0.0363545318,0.259989985 0.10686029,0 Z"></path></clipPath><clipPath id="i8"><path d="M3.06149224,0 C3.66079119,0 4.22043065,0.165247872 4.69964947,0.452779169 L17.8864296,8.09824737 L11.8163245,14.1672509 L0,2.35312969 C0.360240361,0.996995493 1.59629444,0 3.06149224,0 Z"></path></clipPath></defs><g transform="translate(-319.0 -656.0)"><g clip-path="url(#i0)"><g transform="translate(319.8682781904108 656.75)"><g clip-path="url(#i1)"><g transform="translate(-0.06609914872308309 0.0)"><g clip-path="url(#i2)"><polygon points="0.0660991487,0 148.723085,0 148.723085,44 0.0660991487,44 0.0660991487,0" stroke="none" fill="#0A0A08"></polygon></g></g><g transform="translate(-0.06609914872308309 0.0)"><g clip-path="url(#i3)"><polygon points="0.0660991487,0 148.723085,0 148.723085,44 0.0660991487,44 0.0660991487,0" stroke="none" fill="#9D9D9A"></polygon></g></g></g><g transform="translate(47.28152228342513 3.9569699862293426)"><path d="M5.33161133,7.83632812 C4.59781576,8.0463737 3.95813151,8.15139648 3.41255859,8.15139648 C2.4496224,8.15139648 1.71105306,7.87724609 1.19685059,7.32894531 C0.682648112,6.78064453 0.425546875,5.99501953 0.425546875,4.97207031 C0.425546875,3.96821615 0.686057943,3.18736491 1.20708008,2.6295166 C1.72810221,2.07166829 2.45916992,1.79274414 3.4002832,1.79274414 C4.0167806,1.79274414 4.65782878,1.8841276 5.32342773,2.06689453 L5.32342773,2.86070312 C4.48870117,2.57700521 3.84901693,2.43515625 3.404375,2.43515625 C2.7496875,2.43515625 2.24162272,2.65747721 1.88018066,3.10211914 C1.51873861,3.54676107 1.33801758,4.17280599 1.33801758,4.98025391 C1.33801758,5.77951823 1.53169596,6.40078939 1.91905273,6.84406738 C2.30640951,7.28734538 2.84925456,7.50898437 3.54758789,7.50898437 C3.83401367,7.50898437 4.1436263,7.45851888 4.47642578,7.35758789 L4.47642578,5.3853418 L5.33161133,5.3853418 Z" stroke="none" fill="#FFFEFE"></path><polygon points="6.85749258,8 6.85749258,1.94414062 10.2414086,1.94414062 10.2414086,2.58655273 7.71676992,2.58655273 7.71676992,4.53015625 9.83222891,4.53015625 9.83222891,5.16438477 7.71676992,5.16438477 7.71676992,7.35758789 10.4173559,7.35758789 10.4173559,8 6.85749258,8" stroke="none" fill="#FFFEFE"></polygon><polygon points="12.8597996,8 12.8597996,2.58655273 10.7116063,2.58655273 10.7116063,1.94414062 15.8672703,1.94414062 15.8672703,2.58655273 13.719077,2.58655273 13.719077,8 12.8597996,8" stroke="none" fill="#FFFEFE"></polygon><polygon points="19.4059566,8 19.4059566,1.94414062 20.265234,1.94414062 20.265234,8 19.4059566,8" stroke="none" fill="#FFFEFE"></polygon><polygon points="23.2846211,8 23.2846211,2.58655273 21.1364277,2.58655273 21.1364277,1.94414062 26.2920918,1.94414062 26.2920918,2.58655273 24.1438984,2.58655273 24.1438984,8 23.2846211,8" stroke="none" fill="#FFFEFE"></polygon><path d="M32.1059809,8.15139648 C31.2657986,8.15139648 30.5899701,7.86019694 30.0784955,7.27779785 C29.5670209,6.69539876 29.3112836,5.92545898 29.3112836,4.96797852 C29.3112836,4.00504232 29.5683848,3.23510254 30.0825873,2.65815918 C30.5967898,2.08121582 31.2835297,1.79274414 32.142807,1.79274414 C32.9993565,1.79274414 33.6854145,2.08053385 34.2009809,2.65611328 C34.7165473,3.23169271 34.9743305,3.99958659 34.9743305,4.95979492 C34.9743305,5.93909831 34.7165473,6.71585775 34.2009809,7.29007324 C33.6854145,7.86428874 32.9870811,8.15139648 32.1059809,8.15139648 Z M32.1182563,7.50898437 C32.7374815,7.50898437 33.2162217,7.28598145 33.554477,6.83997559 C33.8927322,6.39396973 34.0618598,5.76451497 34.0618598,4.95161133 C34.0618598,4.16325846 33.8920502,3.54676107 33.5524311,3.10211914 C33.2128119,2.65747721 32.7429372,2.43515625 32.142807,2.43515625 C31.539949,2.43515625 31.0693923,2.65815918 30.7311371,3.10416504 C30.3928819,3.5501709 30.2237543,4.17007812 30.2237543,4.96388672 C30.2237543,5.75496745 30.391518,6.37692057 30.7270453,6.82974609 C31.0625727,7.28257161 31.5263096,7.50898437 32.1182563,7.50898437 Z" stroke="none" fill="#FFFEFE"></path><polygon points="36.1974188,8 36.1974188,1.94414062 37.0403289,1.94414062 40.0887176,6.62106445 40.0887176,1.94414062 40.825241,1.94414062 40.825241,8 39.9864227,8 36.9339422,3.32307617 36.9339422,8 36.1974188,8" stroke="none" fill="#FFFEFE"></polygon></g><g transform="translate(45.50260390585865 3.9569699862293675)"><text transform="translate(0.0 8.0)" font-family="LucidaGrande, Lucida Grande" font-size="8.38" font-weight="normal" fill="rgba(0, 0, 0, 0)">G</text><g transform="translate(7.47769454181298 0.0)"><text transform="translate(0.0 8.0)" font-family="LucidaGrande, Lucida Grande" font-size="8.38" font-weight="normal" fill="rgba(0, 0, 0, 0)">E</text></g><g transform="translate(12.71589604406608 0.0)"><text transform="translate(0.0 8.0)" font-family="LucidaGrande, Lucida Grande" font-size="8.38" font-weight="normal" fill="rgba(0, 0, 0, 0)">T</text></g><g transform="translate(17.7341752628945 0.0)"></g><g transform="translate(19.9498187280924 0.0)"><text transform="translate(0.0 8.0)" font-family="LucidaGrande, Lucida Grande" font-size="8.38" font-weight="normal" fill="rgba(0, 0, 0, 0)">I</text></g><g transform="translate(22.46565047571357 0.0)"><text transform="translate(0.0 8.0)" font-family="LucidaGrande, Lucida Grande" font-size="8.38" font-weight="normal" fill="rgba(0, 0, 0, 0)">T</text></g><g transform="translate(27.48392969454198 0.0)"></g><g transform="translate(29.71731797696566 0.0)"><text transform="translate(0.0 8.0)" font-family="LucidaGrande, Lucida Grande" font-size="8.38" font-weight="normal" fill="rgba(0, 0, 0, 0)">O</text></g><g transform="translate(37.38067481221833 0.0)"><text transform="translate(0.0 8.0)" font-family="LucidaGrande, Lucida Grande" font-size="8.38" font-weight="normal" fill="rgba(0, 0, 0, 0)">N</text></g></g><g transform="translate(45.14682023034538 18.77986980470706)"><g clip-path="url(#i4)"><polygon points="0,0 93.3947922,0 93.3947922,18.7600401 0,18.7600401 0,0" stroke="none" fill="#FFFEFE"></polygon></g></g><g transform="translate(11.02864296444667 21.39849774661993)"><g clip-path="url(#i5)"><polygon points="0,0 17.9084627,0 17.9084627,14.8029044 0,14.8029044 0,0" stroke="none" fill="#D74036"></polygon></g></g><g transform="translate(22.49023535302954 15.96735102653981)"><g clip-path="url(#i6)"><polygon points="0,0 13.7827742,0 13.7827742,12.1567351 0,12.1567351 0,0" stroke="none" fill="#F0B628"></polygon></g></g><g transform="translate(10.920681021532301 10.2200300450676)"><g clip-path="url(#i7)"><polygon points="0,0 12.239359,0 12.239359,23.6271407 0,23.6271407 0,0" stroke="none" fill="#5272AA"></polygon></g></g><g transform="translate(11.02754131196795 7.866900350525787)"><g clip-path="url(#i8)"><polygon points="0,0 17.8864296,0 17.8864296,14.1672509 0,14.1672509 0,0" stroke="none" fill="#309E4F"></polygon></g></g></g></g></g></svg>