<?xml version="1.0" encoding="UTF-8"?><svg version="1.1" width="170px" height="42px" viewBox="0 0 170.0 42.0" xmlns="http://www.w3.org/2000/svg" xmlns:xlink="http://www.w3.org/1999/xlink"><defs><clipPath id="i0"><path d="M1440,0 L1440,3957 L0,3957 L0,0 L1440,0 Z"></path></clipPath><clipPath id="i1"><path d="M70.3310005,0.00599810812 C71.1182151,0.014321822 71.8327086,0.468048466 72.1750005,1.177 L80.4830005,18.856 C80.9614906,19.8746922 80.5236419,21.0884017 79.5050005,21.567 C79.2342735,21.6938834 78.9389862,21.7597683 78.6400005,21.76 L78.483016,21.7539344 C77.7557161,21.6977729 77.1085739,21.25547 76.7950005,20.588 L70.3280005,6.824 L63.8280005,20.593 C63.347532,21.6103016 62.1336035,22.0458298 61.1160005,21.566 C60.0986989,21.0855315 59.6631707,19.871603 60.1430005,18.854 L68.4870005,1.173 C68.8236903,0.459621685 69.5421611,0.00492786407 70.3310005,0.00599810812 Z M116.424,17.680999 C116.96494,17.6804686 117.483876,17.8951206 117.866378,18.2776225 C118.24888,18.6601244 118.463532,19.1790609 118.463001,19.72 C118.463001,20.2605112 118.248283,20.7788845 117.866084,21.1610836 C117.483885,21.5432828 116.965512,21.758 116.425,21.758 L103.53,21.758 C102.989581,21.758 102.471311,21.5432509 102.08927,21.161023 C101.70723,20.7787951 101.492735,20.2604192 101.493,19.72 C101.495207,18.5965584 102.406557,17.6869978 103.53,17.687 L116.425,17.687 Z M54.2300005,0.004 C55.3551664,0.00399986455 56.2674484,0.915834224 56.2680005,2.041 C56.2680005,3.16655632 55.3555568,4.079 54.2300005,4.079 L51.2150005,4.079 C47.5305811,4.0492545 44.4521743,6.87728131 44.1700005,10.551 C44.0813959,12.3535201 44.7129571,14.1173321 45.925573,15.4539293 C47.1381889,16.7905265 48.8323893,17.5902686 50.6350005,17.677 C50.7450005,17.685 50.8550005,17.685 50.9650005,17.685 L54.6920005,17.685 L54.6920005,10.885 C54.6920005,9.75944368 55.6044442,8.847 56.7300005,8.847 C57.2711139,8.84099837 57.789992,9.05629647 58.1721477,9.43939017 C58.5543033,9.82248386 58.7683287,10.3418882 58.7670066,10.883 L58.7670066,17.977 C58.7631436,20.0647599 57.0707628,21.755799 54.9830005,21.758 L50.9650005,21.758 C44.9570852,21.7574478 40.0870005,16.8869153 40.0870005,10.879 C40.0876672,10.705 40.0920005,10.531 40.1000005,10.357 C40.4411943,4.48935603 45.3379322,-0.0716811446 51.2150005,0.004 Z M36.1430005,0 C37.2680045,0 38.1800005,0.911995965 38.1800005,2.037 L38.1800005,19.717 C38.1794484,20.8416135 37.2676141,21.7530001 36.1430005,21.753 C35.5464025,21.752561 34.9798038,21.491363 34.5920005,21.038 L23.0980005,7.564 L23.0980005,19.72 C23.0980005,20.845004 22.1860045,21.757 21.0610005,21.757 C19.9359965,21.757 19.0240005,20.845004 19.0240005,19.72 L19.0240005,12.917 L8.98400049,12.917 C7.85883472,12.9164479 6.94700049,12.0041659 6.94700049,10.879 C6.94700049,9.75399596 7.85899646,8.842 8.98400049,8.842 L19.0240005,8.842 L19.0240005,2.042 C19.0237352,1.50158077 19.2382299,0.983204909 19.6202703,0.600976997 C20.0023107,0.218749084 20.5205812,0.00399993488 21.0610005,0.004 C21.6576177,0.00403743219 22.2241956,0.265759902 22.6110005,0.72 L34.1050005,14.19 L34.1050005,2.038 C34.1050005,0.91244368 35.0174442,0 36.1430005,0 Z M14.9320005,17.6809961 C15.4732859,17.6799368 15.9927368,17.894354 16.3756718,18.2769137 C16.7586067,18.6594733 16.973533,19.1787138 16.9730015,19.72 C16.9724705,20.2606848 16.7571073,20.7789992 16.3743167,21.1608521 C15.991526,21.542705 15.4726849,21.7567962 14.9320005,21.7560022 L2.03700049,21.7560022 C1.4965812,21.7560022 0.978310671,21.5412509 0.596270309,21.159023 C0.214229947,20.7767951 -0.000264810395,20.2584192 2.45359388e-07,19.718 C2.45359388e-07,18.592996 0.911996456,17.6809961 2.03700049,17.6809961 Z M94.7300005,0.001 C95.2704197,0.000734698431 95.7887956,0.215229456 96.1710235,0.597269818 C96.5532514,0.97931018 96.7680006,1.4975807 96.7680005,2.038 C96.7680005,3.16355632 95.8555568,4.076 94.7300005,4.076 L91.7150005,4.076 C88.0303915,4.04576201 84.9516996,6.87405074 84.6700005,10.548 C84.5813959,12.3505201 85.2129571,14.1143321 86.425573,15.4509293 C87.6381889,16.7875265 89.3323893,17.5872686 91.1350005,17.674 C91.2450005,17.6793333 91.3550005,17.682 91.4650005,17.682 L95.1920005,17.682 L95.1920005,10.882 C95.2089943,9.75678421 96.1347802,8.85830626 97.2600005,8.875 C97.3250005,8.876 97.3860005,8.89 97.4500005,8.897 C97.5969152,8.86282515 97.747167,8.84504983 97.8980005,8.844 L108.266,8.844 C108.80642,8.8437347 109.324796,9.05822946 109.707023,9.44026982 C110.089251,9.82231018 110.304004,10.3405807 110.304004,10.881 L110.304,10.879 L110.296453,11.0573799 C110.260539,11.4733181 110.097632,11.8683886 109.829933,12.1887497 L109.708853,12.3213163 C109.326755,12.7043522 108.808032,12.9197356 108.267,12.92 L99.2670005,12.92 L99.2670005,17.974 C99.2636941,20.0615982 97.5716002,21.7527976 95.4840005,21.755 L91.4660005,21.755 C85.458247,21.755 80.5880005,16.8847535 80.5880005,10.877 C80.5886672,10.7023333 80.5930005,10.528 80.6010005,10.354 C80.9411816,4.48627886 85.8379202,-0.0751693012 91.7150005,0.001 Z M116.425,0.00599975419 C116.96542,0.00573469843 117.483796,0.220229456 117.866023,0.602269818 C118.248251,0.98431018 118.463,1.5025807 118.463,2.043 C118.463,3.16855632 117.550557,4.081 116.425,4.081 L103.53,4.081 C102.406946,4.07500338 101.495757,3.16605092 101.493,2.043 C101.493,0.917995965 102.404996,0.00599975419 103.53,0.00599975419 Z M14.9320005,0 C16.0570045,0 16.9690005,0.911995965 16.9690005,2.037 C16.9690005,3.16216591 16.0571663,4.07444791 14.9320005,4.075 L2.03700049,4.075 C1.4965812,4.075 0.978310671,3.86025092 0.596270309,3.478023 C0.214229947,3.09579509 -0.000264810395,2.57741923 2.45359388e-07,2.037 C2.45359388e-07,0.911995965 0.911996456,0 2.03700049,0 Z"></path></clipPath><linearGradient id="i2" x1="59.2315012px" y1="19.10627px" x2="59.2315012px" y2="1.61032344px" gradientUnits="userSpaceOnUse"><stop stop-color="#EF554D" offset="0%"></stop><stop stop-color="#E05B55" offset="7.2%"></stop><stop stop-color="#5E929E" offset="71.7%"></stop><stop stop-color="#2AA9BC" offset="100%"></stop></linearGradient><clipPath id="i3"><path d="M31.1,0 C37.0094468,0 41.8,4.79055318 41.8,10.7 L41.8,31.1 C41.8,37.0094468 37.0094468,41.8 31.1,41.8 L10.7,41.8 C4.79055318,41.8 0,37.0094468 0,31.1 L0,10.7 C0,4.79055318 4.79055318,0 10.7,0 L31.1,0 Z"></path></clipPath><linearGradient id="i4" x1="2.6334px" y1="38.247px" x2="38.874px" y2="3.8456px" gradientUnits="userSpaceOnUse"><stop stop-color="#EF554D" offset="0%"></stop><stop stop-color="#2AA9BC" offset="100%"></stop></linearGradient><clipPath id="i5"><path d="M23.23,19.976 C24.5002549,19.976 25.53,21.0057451 25.53,22.276 C25.53,23.5462549 24.5002549,24.576 23.23,24.576 L8.663,24.576 C7.39274508,24.576 6.363,23.5462549 6.363,22.276 C6.363,21.0057451 7.39274508,19.976 8.663,19.976 L23.23,19.976 Z M14.013,9.988 C14.6229979,9.988 15.2080119,10.2303207 15.6393456,10.6616544 C16.0706793,11.0929881 16.313,11.6780021 16.313,12.288 C16.313,13.5582549 15.2832549,14.588 14.013,14.588 L2.3,14.588 C1.02974508,14.588 0,13.5582549 0,12.288 C0,11.0177451 1.02974508,9.988 2.3,9.988 L14.013,9.988 Z M23.23,0 C24.5002549,0 25.53,1.02974508 25.53,2.3 C25.53,2.90999793 25.2876793,3.49501193 24.8563456,3.9263456 C24.4250119,4.35767927 23.8399979,4.6 23.23,4.6 L8.663,4.6 C8.05300207,4.6 7.46798807,4.35767927 7.0366544,3.9263456 C6.60532073,3.49501193 6.363,2.90999793 6.363,2.3 C6.363,1.02974508 7.39274508,0 8.663,0 L23.23,0 Z"></path></clipPath></defs><g transform="translate(-151.0 -44.0)"><g clip-path="url(#i0)"><g transform="translate(151.3199999999997 43.0)"><g transform="translate(0.0 1.1000000000000227)"><g transform="translate(50.670999508826306 11.51999999999998)"><g clip-path="url(#i1)"><polygon points="1.79310471e-13,0 118.463002,0 118.463002,21.7611276 1.79310471e-13,21.7611276 1.79310471e-13,0" stroke="none" fill="url(#i2)"></polygon></g></g><g clip-path="url(#i3)"><polygon points="0,0 41.8,0 41.8,41.8 0,41.8 0,0" stroke="none" fill="url(#i4)"></polygon></g><g transform="translate(8.054999999999836 8.724999999999952)"><g clip-path="url(#i5)"><polygon points="0,0 25.53,0 25.53,24.576 0,24.576 0,0" stroke="none" fill="#FFFFFF"></polygon></g></g></g></g></g></g></svg>