<?xml version="1.0" encoding="UTF-8"?>
<svg width="162px" height="27px" viewBox="0 0 162 27" version="1.1" xmlns="http://www.w3.org/2000/svg" xmlns:xlink="http://www.w3.org/1999/xlink">
    <title>76A9EDA3-F0DF-4C90-9157-39F3538BF66F</title>
    <defs>
        <linearGradient x1="-16.296875%" y1="43.731846%" x2="142.996094%" y2="65.5653212%" id="linearGradient-1">
            <stop stop-color="#12FFAD" offset="0%"></stop>
            <stop stop-color="#7159FF" offset="100%"></stop>
        </linearGradient>
    </defs>
    <g id="donor" stroke="none" stroke-width="1" fill="none" fill-rule="evenodd">
        <g id="engage-/-5" transform="translate(-150.000000, -1098.000000)" fill="url(#linearGradient-1)">
            <g id="footer" transform="translate(0.000000, 997.000000)">
                <path d="M171,122.317143 L171,128 L150,128 L150,102 L170.514235,102 L170.514235,107.682857 L157.323843,107.682857 L157.323843,112.065714 L168.94484,112.065714 L168.94484,117.562857 L157.323843,117.562857 L157.323843,122.317143 L171,122.317143 Z M200,102 L200,128 L193.881381,128 L182.282282,114.145714 L182.282282,128 L175,128 L175,102 L181.118619,102 L192.717718,115.854286 L192.717718,102 L200,102 Z M221.864943,113.943681 L228.402299,113.943681 L228.402299,124.699176 C226.908046,125.762363 225.189655,126.578297 223.247126,127.146978 C221.304598,127.715659 219.362069,128 217.41954,128 C214.680077,128 212.214559,127.425137 210.022989,126.275412 C207.831418,125.125687 206.113027,123.524725 204.867816,121.472527 C203.622605,119.42033 203,117.096154 203,114.5 C203,111.903846 203.622605,109.57967 204.867816,107.527473 C206.113027,105.475275 207.84387,103.874313 210.060345,102.724588 C212.27682,101.574863 214.779693,101 217.568966,101 C220.009579,101 222.201149,101.407967 224.143678,102.223901 C226.086207,103.039835 227.704981,104.214286 229,105.747253 L224.293103,109.975275 C222.524904,108.046703 220.408046,107.082418 217.942529,107.082418 C215.701149,107.082418 213.895594,107.756181 212.525862,109.103709 C211.15613,110.451236 210.471264,112.25 210.471264,114.5 C210.471264,115.934066 210.782567,117.213599 211.405172,118.338599 C212.027778,119.463599 212.899425,120.341346 214.020115,120.971841 C215.140805,121.602335 216.423372,121.917582 217.867816,121.917582 C219.287356,121.917582 220.619732,121.633242 221.864943,121.06456 L221.864943,113.943681 Z M250.380835,122.948571 L239.471744,122.948571 L237.444717,128 L230,128 L241.388206,102 L248.574939,102 L260,128 L252.407862,128 L250.380835,122.948571 Z M248.243243,117.525714 L244.92629,109.205714 L241.609337,117.525714 L248.243243,117.525714 Z M279.864943,113.943681 L286.402299,113.943681 L286.402299,124.699176 C284.908046,125.762363 283.189655,126.578297 281.247126,127.146978 C279.304598,127.715659 277.362069,128 275.41954,128 C272.680077,128 270.214559,127.425137 268.022989,126.275412 C265.831418,125.125687 264.113027,123.524725 262.867816,121.472527 C261.622605,119.42033 261,117.096154 261,114.5 C261,111.903846 261.622605,109.57967 262.867816,107.527473 C264.113027,105.475275 265.84387,103.874313 268.060345,102.724588 C270.27682,101.574863 272.779693,101 275.568966,101 C278.009579,101 280.201149,101.407967 282.143678,102.223901 C284.086207,103.039835 285.704981,104.214286 287,105.747253 L282.293103,109.975275 C280.524904,108.046703 278.408046,107.082418 275.942529,107.082418 C273.701149,107.082418 271.895594,107.756181 270.525862,109.103709 C269.15613,110.451236 268.471264,112.25 268.471264,114.5 C268.471264,115.934066 268.782567,117.213599 269.405172,118.338599 C270.027778,119.463599 270.899425,120.341346 272.020115,120.971841 C273.140805,121.602335 274.423372,121.917582 275.867816,121.917582 C277.287356,121.917582 278.619732,121.633242 279.864943,121.06456 L279.864943,113.943681 Z M312,122.317143 L312,128 L291,128 L291,102 L311.514235,102 L311.514235,107.682857 L298.323843,107.682857 L298.323843,112.065714 L309.94484,112.065714 L309.94484,117.562857 L298.323843,117.562857 L298.323843,122.317143 L312,122.317143 Z" id="logo-/-engage"></path>
            </g>
        </g>
    </g>
</svg>