<?xml version="1.0" encoding="UTF-8"?><svg version="1.1" width="807px" height="727px" viewBox="0 0 807.0 727.0" xmlns="http://www.w3.org/2000/svg" xmlns:xlink="http://www.w3.org/1999/xlink"><defs><clipPath id="i0"><path d="M1440,0 L1440,1952 L0,1952 L0,0 L1440,0 Z"></path></clipPath><clipPath id="i1"><path d="M699.854861,0.00626293142 L701.607535,0.00894907455 C757.430193,0.48170975 815.879555,67.6321748 805.264348,149.039257 C796.178119,218.8441 728.2574,276.878356 739.329224,346.385706 C747.24393,396.018658 794.06338,432.448904 802.81983,481.938875 C813.077583,540.003111 767.544965,593.521925 717.840522,625.224564 C656.893599,664.127003 586.272379,684.716306 516.338391,703.031747 C515.794624,703.174175 515.250696,703.316504 514.706608,703.458717 L511.440176,704.310445 C458.602333,718.052665 404.294411,730.352148 350.094983,724.518143 C292.902472,718.360724 239.598129,692.287396 191.521828,660.683921 C130.030654,620.224832 74.0973005,568.961432 38.2804905,504.642918 C2.46368055,440.322099 -11.5254231,361.843827 10.6643487,291.65155 C29.7938599,231.232736 137.449537,110.378964 310.002571,121.47385 C376.00688,125.717166 441.905106,110.510415 498.846246,76.8590795 C561.949419,39.5640276 643.416461,-0.484566947 701.607535,0.00894907455 Z"></path></clipPath><linearGradient id="i2" x1="150.052677px" y1="-34.2178547px" x2="880.104941px" y2="352.174007px" gradientUnits="userSpaceOnUse"><stop stop-color="#FFFFFF" offset="0%"></stop><stop stop-color="#DB83EA" offset="100%"></stop></linearGradient></defs><g transform="translate(-15.0 -796.0)"><g clip-path="url(#i0)"><g transform="translate(821.9999999999995 1522.2096576590366) rotate(-180.0)"><g clip-path="url(#i1)"><polygon points="5.68434189e-14,0.00443361496 806.522671,0.00443361496 806.522671,726.004434 5.68434189e-14,726.004434 5.68434189e-14,0.00443361496" stroke="none" fill="url(#i2)"></polygon></g></g></g></g></svg>