<?xml version="1.0" encoding="UTF-8"?><svg version="1.1" width="535px" height="517px" viewBox="0 0 535.0 517.0" xmlns="http://www.w3.org/2000/svg" xmlns:xlink="http://www.w3.org/1999/xlink"><defs><clipPath id="i0"><path d="M1440,0 L1440,3957 L0,3957 L0,0 L1440,0 Z"></path></clipPath><clipPath id="i1"><path d="M436.518269,53.8610789 C448.638971,74.964025 455.516814,98.3283215 461.749233,121.968574 L462.439301,124.596303 C463.241827,127.663077 464.036369,130.733252 464.832941,133.802505 L465.516448,136.432965 L466.20235,139.062368 C468.265053,146.948386 470.379019,154.811959 472.714522,162.579553 C488.471488,215.029478 514.739952,264.09421 527.56572,317.338231 C540.397815,370.575925 537.292613,432.235473 500.514232,472.816659 C471.553433,504.759275 426.036826,518.039039 382.983184,515.748497 C339.931124,513.4453 298.802613,497.286541 260.219324,478.033652 C254.665266,475.263457 249.095525,472.411309 243.494649,469.591715 L241.626516,468.653213 C216.702132,456.160118 191.128803,444.561371 163.549922,443.909643 C140.647668,443.367063 94.0901936,444.668938 73.38357,434.858206 C50.6047023,424.065136 28.1611901,400.713633 14.5049425,379.527704 C-9.96810357,341.564506 3.00161426,249.833689 7.19197681,166.52789 C8.34990259,143.481687 17.9328457,121.316583 34.9853592,105.773169 C72.2003344,71.8832762 114.208363,94.5150304 150.643478,113.132009 C179.545749,127.898727 216.066285,140.192988 242.746034,121.707304 C257.544135,111.457193 264.970621,94.5435723 271.923671,77.5271438 L272.74527,75.5119633 L273.564988,73.4982429 C273.747127,73.0510911 273.929316,72.6042267 274.111679,72.1577694 L274.65942,70.8197382 C275.939295,67.7010729 277.233904,64.608212 278.586368,61.582166 C291.029324,33.7539825 312.892291,7.47444569 342.751591,1.328897 C380.265538,-6.39377192 417.431476,20.6450605 436.518269,53.8610789 Z"></path></clipPath><linearGradient id="i2" x1="99.430205px" y1="-24.3199796px" x2="583.188628px" y2="250.303964px" gradientUnits="userSpaceOnUse"><stop stop-color="#FFFFFF" offset="0%"></stop><stop stop-color="#DB83EA" offset="100%"></stop></linearGradient></defs><g transform="translate(-172.0 -3065.0)"><g clip-path="url(#i0)"><g transform="translate(172.4303586018989 3065.650810133206)"><g clip-path="url(#i1)"><polygon points="1.77635684e-15,1.53210777e-14 534.430416,1.53210777e-14 534.430416,516 1.77635684e-15,516 1.77635684e-15,1.53210777e-14" stroke="none" fill="url(#i2)"></polygon></g></g></g></g></svg>