<?xml version="1.0" encoding="UTF-8"?><svg version="1.1" width="415px" height="401px" viewBox="0 0 415.0 401.0" xmlns="http://www.w3.org/2000/svg" xmlns:xlink="http://www.w3.org/1999/xlink"><defs><clipPath id="i0"><path d="M1440,0 L1440,1147 L0,1147 L0,0 L1440,0 Z"></path></clipPath><clipPath id="i1"><path d="M338.386255,41.7527743 C348.826136,59.9292998 354.248447,80.2700041 359.541944,100.663686 L360.203313,103.213019 L360.865463,105.761988 C362.634122,112.557939 364.433735,119.340227 366.445366,126.030661 C371.588399,143.15018 378.176031,159.804469 384.822143,176.431253 L386.484088,180.587629 C395.068805,202.061896 403.558374,223.551129 408.965674,245.998629 C418.913035,287.268159 416.505901,335.066258 387.995529,366.524542 C365.545297,391.28626 330.261105,401.58065 296.886189,399.805036 C263.512499,398.019613 231.629932,385.493443 201.720406,370.568723 C200.10787,369.764439 198.493629,368.951243 196.877053,368.1338 L195.259675,367.315113 C194.450574,366.905234 193.640836,366.494682 192.830384,366.08404 L191.208504,365.262807 L189.584577,364.442369 C169.542958,354.332797 149.002609,344.641086 126.782885,344.116002 C109.0292,343.695397 72.9381346,344.704603 56.8864884,337.099385 C39.2284514,328.732664 21.8303799,310.630723 11.2441415,294.207522 C-4.31236843,270.075877 -0.35220047,217.918382 3.36852333,164.317229 L3.64005744,160.393003 C4.36148008,149.923586 5.05544093,139.42389 5.57517582,129.091387 C6.4727927,111.226114 13.9014308,94.0438627 27.1204335,81.994705 C55.9692515,55.7234699 88.5336148,73.2674654 116.77789,87.6992319 C139.182751,99.1462997 167.493244,108.676735 188.17522,94.3467471 C199.007344,86.843726 204.744192,74.7348743 209.88809,62.3022499 L210.392294,61.0784756 C210.476062,60.8743895 210.559711,60.6702541 210.643259,60.4660883 L211.143511,59.2408794 C211.309969,58.8324554 211.476185,58.4240606 211.642319,58.0158461 L212.140635,56.7918938 C212.722087,55.3649323 213.304478,53.9420267 213.894612,52.5296479 L214.402496,51.3217664 C214.912594,50.1167648 215.429809,48.9208554 215.958424,47.7381131 C225.604127,26.1658779 242.552164,5.79414395 265.698907,1.03015271 C294.779487,-4.95641234 323.590291,16.0039229 338.386255,41.7527743 Z"></path></clipPath><linearGradient id="i2" x1="452.084208px" y1="194.034081px" x2="77.0776783px" y2="-18.8526974px" gradientUnits="userSpaceOnUse"><stop stop-color="#FFFFFF" offset="0%"></stop><stop stop-color="#DB83EA" offset="100%"></stop></linearGradient></defs><g transform="translate(-810.0 -305.0)"><g clip-path="url(#i0)"><g transform="translate(1224.9635722344565 705.6552240440766) rotate(-180.0)"><g clip-path="url(#i1)"><polygon points="0,1.19904087e-14 414.287144,1.19904087e-14 414.287144,400 0,400 0,1.19904087e-14" stroke="none" fill="url(#i2)"></polygon></g></g></g></g></svg>