<?xml version="1.0" encoding="UTF-8"?><svg version="1.1" width="95px" height="323px" viewBox="0 0 95.0 323.0" xmlns="http://www.w3.org/2000/svg" xmlns:xlink="http://www.w3.org/1999/xlink"><defs><clipPath id="i0"><path d="M1440,0 L1440,3957 L0,3957 L0,0 L1440,0 Z"></path></clipPath><clipPath id="i1"><path d="M275.951515,34.049082 C284.193198,48.3983987 288.600334,64.4016326 292.789679,80.4968934 L293.70721,84.0308657 C293.809084,84.4235576 293.910986,84.8162362 294.012968,85.2088789 L294.626246,87.564123 C295.958923,92.6654328 297.322915,97.7530153 298.833515,102.777082 C302.935103,116.429964 308.163352,129.720009 313.461057,142.981071 L315.732672,148.663582 C322.541782,165.711632 329.216045,182.790611 333.508515,200.610082 C341.620515,234.265082 339.657515,273.244082 316.407515,298.898082 C298.099515,319.091082 269.325515,327.486082 242.108515,326.038082 C214.892515,324.582082 188.892515,314.367082 164.501515,302.196082 C161.934936,300.91595 159.363059,299.608135 156.782069,298.300912 L155.232351,297.516875 L153.680262,296.734337 C137.629135,288.660531 121.169015,281.044214 103.390515,280.624082 C88.9125151,280.281082 59.4805151,281.104082 46.3905151,274.902082 C31.9905151,268.079082 17.8025151,253.317082 9.16951509,239.924082 C-6.30148491,215.925082 1.89751509,157.936082 4.54651509,105.273082 C5.27851509,90.704082 11.3365151,76.692082 22.1165151,66.866082 C45.6425151,45.442082 72.1985151,59.749082 95.2315151,71.518082 C113.502515,80.853082 136.589515,88.625082 153.455515,76.939082 C162.123825,70.9348566 166.790945,61.3137894 170.926312,51.3755833 L171.420226,50.1816874 C171.830063,49.1858577 172.235971,48.1881764 172.641419,47.1919433 L173.127958,45.9973699 L173.615386,44.8054539 C174.42925,42.8218455 175.252374,40.854589 176.112515,38.930082 C183.978515,21.338082 197.799515,4.725082 216.675515,0.840081998 C240.390515,-4.041918 263.885515,13.051082 275.951515,34.049082 Z"></path></clipPath><linearGradient id="i2" x1="62.8562827px" y1="-15.3742368px" x2="368.671364px" y2="158.233373px" gradientUnits="userSpaceOnUse"><stop stop-color="#FFFFFF" offset="0%"></stop><stop stop-color="#DB83EA" offset="100%"></stop></linearGradient></defs><g transform="translate(0.0 -589.0)"><g clip-path="url(#i0)"><g transform="translate(-243.0000150933729 585.25)"><g clip-path="url(#i1)"><polygon points="243.000015,9.76996262e-15 337.848135,9.76996262e-15 337.848135,326.197073 243.000015,326.197073 243.000015,9.76996262e-15" stroke="none" fill="url(#i2)"></polygon></g></g></g></g></svg>