<?xml version="1.0" encoding="UTF-8"?><svg version="1.1" width="528px" height="399px" viewBox="0 0 528.0 399.0" xmlns="http://www.w3.org/2000/svg" xmlns:xlink="http://www.w3.org/1999/xlink"><defs><clipPath id="i0"><path d="M1440,0 L1440,3957 L0,3957 L0,0 L1440,0 Z"></path></clipPath></defs><g transform="translate(-758.0 -258.0)"><g clip-path="url(#i0)"><g transform="translate(760.9565696817273 260.4052240440764)"><path d="M190.698731,366.559167 C249.145251,351.878828 331.240829,392.108688 374.662004,393.919974 C414.405052,395.571914 466.030375,371.398036 496.344208,344.614677 C526.67266,317.82547 533.229255,274.790236 503.2999,249.999439 C490.268577,239.213585 472.050455,232.687691 458.798386,222.062645 C416.382995,188.048759 440.27619,130.021802 421.446996,84.935531 C399.742256,32.9652011 323.905046,6.35873118 251.751808,1.10468433 C205.864419,-2.23866714 156.541579,1.35466819 116.799992,20.9528185 C77.0686379,40.5495069 50.5601149,79.3160106 64.6352298,112.286105 C77.3156979,141.994714 119.628756,168.329271 102.666401,197.90631 C90.8148267,218.593571 56.8316399,225.214489 33.6094545,239.519121 C-2.76685262,261.937265 -9.29713289,304.874552 12.4748537,334.584623 C34.2556117,364.293231 61.3445065,385.639807 107.104711,383.090264 C128.460058,381.900282 170.140116,371.722577 190.698731,366.559167 Z" stroke="#FF5F7F" stroke-width="4" fill="none" stroke-miterlimit="10"></path></g></g></g></svg>