<?xml version="1.0" encoding="UTF-8"?><svg version="1.1" width="473px" height="454px" viewBox="0 0 473.0 454.0" xmlns="http://www.w3.org/2000/svg" xmlns:xlink="http://www.w3.org/1999/xlink"><defs><clipPath id="i0"><path d="M1440,0 L1440,3957 L0,3957 L0,0 L1440,0 Z"></path></clipPath></defs><g transform="translate(-189.0 -985.0)"><g clip-path="url(#i0)"><g transform="translate(130.86427492729865 1306.676739929052) rotate(-67.00000000000001)"><path d="M172.604026,390.748351 C225.50477,375.099258 299.8106,417.98388 339.111698,419.914693 C375.083674,421.675645 421.810459,395.906536 449.247924,367.355747 C476.69862,338.798725 482.633083,292.923602 455.543615,266.496864 C443.748787,254.999253 427.259315,248.042716 415.264687,236.716525 C376.873937,200.458068 398.5,138.601921 381.457433,90.5404137 C361.812177,35.1405697 293.170882,6.77834288 227.864,1.17758228 C186.330698,-2.38639644 141.687921,1.44406254 105.717268,22.3354918 C69.755877,43.2253627 45.7626507,84.5500621 58.5022295,119.695848 C69.9794944,151.364923 108.277622,179.437294 92.924762,210.966117 C82.1977403,233.018527 51.4390937,240.076359 30.4203764,255.324951 C-2.50431611,279.222465 -8.41496199,324.993177 11.2911605,356.663811 C31.0052221,388.332886 55.5237509,411.088119 96.9419371,408.370332 C116.270953,407.101824 153.996143,396.252493 172.604026,390.748351 Z" stroke="#FF5F7F" stroke-width="4" fill="none" stroke-miterlimit="10"></path></g></g></g></svg>