<?xml version="1.0" encoding="UTF-8"?><svg version="1.1" width="412px" height="393px" viewBox="0 0 412.0 393.0" xmlns="http://www.w3.org/2000/svg" xmlns:xlink="http://www.w3.org/1999/xlink"><defs><clipPath id="i0"><path d="M1440,0 L1440,1147 L0,1147 L0,0 L1440,0 Z"></path></clipPath></defs><g transform="translate(-858.0 -346.0)"><g clip-path="url(#i0)"><g transform="translate(801.4941243309609 601.8688914920212) rotate(-62.00000000000003)"><path d="M147.946308,334.927158 C193.289803,321.51365 256.980514,358.271897 290.667169,359.92688 C321.500292,361.436267 361.551822,339.348459 385.069649,314.876355 C408.598817,290.398907 413.6855,251.077373 390.465956,228.425883 C380.356103,218.570788 366.22227,212.608042 355.94116,202.899879 C323.034803,171.821201 341.571423,118.801647 326.963514,77.6060689 C310.124723,30.1204883 251.289327,5.81000818 195.312,1.00935624 C159.712027,-2.04548266 121.44679,1.23776789 90.6148012,19.1447072 C59.7907517,37.0503108 39.2251292,72.4714818 50.1447681,102.596441 C59.9824238,129.741363 92.80939,153.803395 79.649796,180.8281 C70.4552059,199.730166 44.0906517,205.779736 26.0746084,218.849958 C-2.14655666,239.333541 -7.21282456,278.56558 9.67813757,305.711838 C26.5759046,332.85676 47.5917865,352.361245 83.0930889,350.031713 C99.660817,348.94442 131.996694,339.644994 147.946308,334.927158 Z" stroke="#FF5F7F" stroke-width="4" fill="none" stroke-miterlimit="10"></path></g></g></g></svg>